<svg width="71" height="71" viewBox="0 0 71 71" fill="none" xmlns="http://www.w3.org/2000/svg">
<path d="M35.4929 26.4581C30.6339 26.4581 26.6686 30.4235 26.6686 35.2825C26.6686 40.1416 30.6339 44.1069 35.4929 44.1069C40.3518 44.1069 44.3171 40.1416 44.3171 35.2825C44.3171 30.4235 40.3518 26.4581 35.4929 26.4581ZM61.959 35.2825C61.959 31.6283 61.9921 28.0072 61.7869 24.3596C61.5817 20.1228 60.6152 16.3627 57.5171 13.2645C54.4124 10.1598 50.6589 9.19986 46.4222 8.99464C42.7681 8.78943 39.147 8.82253 35.4995 8.82253C31.8454 8.82253 28.2243 8.78943 24.5768 8.99464C20.3401 9.19986 16.58 10.1664 13.4819 13.2645C10.3772 16.3693 9.41734 20.1228 9.21212 24.3596C9.00691 28.0138 9.04001 31.6349 9.04001 35.2825C9.04001 38.9301 9.00691 42.5578 9.21212 46.2054C9.41734 50.4422 10.3838 54.2024 13.4819 57.3005C16.5866 60.4053 20.3401 61.3652 24.5768 61.5704C28.2309 61.7756 31.852 61.7425 35.4995 61.7425C39.1537 61.7425 42.7747 61.7756 46.4222 61.5704C50.6589 61.3652 54.419 60.3986 57.5171 57.3005C60.6218 54.1957 61.5817 50.4422 61.7869 46.2054C61.9987 42.5578 61.959 38.9367 61.959 35.2825ZM35.4929 48.8601C27.9794 48.8601 21.9156 42.7962 21.9156 35.2825C21.9156 27.7689 27.9794 21.705 35.4929 21.705C43.0064 21.705 49.0702 27.7689 49.0702 35.2825C49.0702 42.7962 43.0064 48.8601 35.4929 48.8601ZM49.6262 24.3199C47.872 24.3199 46.4553 22.9032 46.4553 21.1489C46.4553 19.3946 47.872 17.9779 49.6262 17.9779C51.3805 17.9779 52.7971 19.3946 52.7971 21.1489C52.7977 21.5655 52.716 21.978 52.5568 22.363C52.3977 22.7479 52.1641 23.0977 51.8696 23.3923C51.575 23.6868 51.2253 23.9204 50.8403 24.0795C50.4554 24.2387 50.0428 24.3204 49.6262 24.3199Z" fill="white"/>
</svg>
