<svg width="71" height="71" viewBox="0 0 71 71" fill="none" xmlns="http://www.w3.org/2000/svg">
<path fill-rule="evenodd" clip-rule="evenodd" d="M10.2771 13.697C9.31573 15.5839 9.31573 18.0539 9.31573 22.9939V42.8668C9.31573 49.4535 9.31573 52.7468 10.5976 55.2626C11.7251 57.4756 13.5243 59.2748 15.7373 60.4023C18.2531 61.6842 21.5464 61.6842 28.1331 61.6842H43.3017C49.8884 61.6842 53.1817 61.6842 55.6975 60.4023C57.9105 59.2748 59.7096 57.4756 60.8372 55.2626C62.1191 52.7468 62.1191 49.4535 62.1191 42.8668V27.6982C62.1191 21.1115 62.1191 17.8182 60.8372 15.3024C59.7096 13.0895 57.9105 11.2903 55.6975 10.1627C53.1817 8.88086 49.8884 8.88086 43.3017 8.88086H23.4288C18.4887 8.88086 16.0187 8.88086 14.1319 9.84225C12.4722 10.6879 11.1228 12.0373 10.2771 13.697ZM53.6755 23.5754C55.5229 23.5754 57.0205 22.0778 57.0205 20.2304C57.0205 18.383 55.5229 16.8854 53.6755 16.8854C51.8281 16.8854 50.3306 18.383 50.3306 20.2304C50.3306 22.0778 51.8281 23.5754 53.6755 23.5754ZM18.051 23.5747H43.9083C45.5027 23.5747 46.7957 23.7337 47.83 24.0118C48.8643 24.3297 49.7261 24.8065 50.5019 25.482C51.2345 26.1973 51.7516 26.992 52.0533 27.9059C52.3551 28.8199 52.5273 30.0119 52.5273 31.5219V33.5087C52.5273 36.0518 52.0532 37.9592 51.1053 39.1511C50.1571 40.3433 48.6057 41.0983 46.4508 41.4161L53.3892 50.0784H45.3304L39.0384 41.4557H25.2479V50.0784H18.051V23.5747ZM25.2479 35.6147H42.7448C43.7359 35.6147 44.4254 35.4954 44.7702 35.2173C45.1149 34.9392 45.3304 34.4227 45.3304 33.6279V31.4027C45.3304 30.6477 45.1149 30.1311 44.7702 29.8529C44.4254 29.5748 43.7359 29.4158 42.7448 29.4158H25.2479V35.6147Z" fill="white"/>
</svg>
