<svg width="71" height="71" viewBox="0 0 71 71" fill="none" xmlns="http://www.w3.org/2000/svg">
<path d="M38.3772 57.3306C14.7026 57.3306 1.19899 40.7783 0.636341 13.2354H12.4953C12.8848 33.4512 21.6275 42.0142 28.5524 43.7798V13.2354H39.7189V30.6704C46.5573 29.92 53.7419 21.9749 56.1656 13.2354H67.332C66.4187 17.768 64.5981 22.0596 61.9842 25.8419C59.3702 29.6241 56.0191 32.8156 52.1405 35.2168C56.47 37.4107 60.294 40.5161 63.3603 44.328C66.4266 48.1399 68.6653 52.5715 69.9289 57.3306H57.6371C56.5029 53.197 54.1976 49.4968 51.0101 46.6936C47.8226 43.8905 43.8948 42.1092 39.7189 41.5728V57.3306H38.3772Z" fill="white"/>
</svg>
