<svg width="72" height="71" viewBox="0 0 72 71" fill="none" xmlns="http://www.w3.org/2000/svg">
<g clip-path="url(#clip0_244_11815)">
<path d="M69.9558 19.1573C69.5542 17.7385 68.7694 16.4446 67.6794 15.4043C66.5895 14.3641 65.2325 13.6138 63.7434 13.2282C58.222 11.7845 36.1331 11.761 36.1331 11.761C36.1331 11.761 14.0477 11.7375 8.52284 13.1174C7.0347 13.5208 5.68044 14.2816 4.59007 15.327C3.49971 16.3723 2.70985 17.667 2.29633 19.0868C0.840189 24.3444 0.826085 35.2492 0.826085 35.2492C0.826085 35.2492 0.811982 46.2076 2.25755 51.4115C3.06847 54.2888 5.44837 56.5617 8.47347 57.3373C14.0512 58.7809 36.0802 58.8044 36.0802 58.8044C36.0802 58.8044 58.1692 58.8279 63.6905 57.4514C65.1801 57.0665 66.5384 56.3179 67.6311 55.2798C68.7237 54.2417 69.5129 52.95 69.9205 51.5324C71.3802 46.2781 71.3908 35.3767 71.3908 35.3767C71.3908 35.3767 71.4613 24.4149 69.9558 19.1573ZM29.0675 45.3515L29.0851 25.2073L47.4438 35.2962L29.0675 45.3515Z" fill="white"/>
</g>
<defs>
<clipPath id="clip0_244_11815">
<rect width="70.5652" height="70.5652" fill="white" transform="translate(0.82608)"/>
</clipPath>
</defs>
</svg>
